solid toilet_fix
facet normal 1.0 0.0 0.0
  outer loop
    vertex 8.25 19.0 0.0
    vertex 8.25 17.0 7.0
    vertex 8.25 17.0 0.0
  endloop
endfacet
facet normal 1.0 0.0 0.0
  outer loop
    vertex 8.25 17.0 7.0
    vertex 8.25 19.0 0.0
    vertex 8.25 19.0 7.0
  endloop
endfacet
facet normal -1.0 -0.0 -0.0
  outer loop
    vertex 10.749999999999998 19.0 7.0
    vertex 10.749999999999998 17.0 0.0
    vertex 10.749999999999998 17.0 7.0
  endloop
endfacet
facet normal -1.0 -0.0 -0.0
  outer loop
    vertex 10.749999999999998 17.0 0.0
    vertex 10.749999999999998 19.0 7.0
    vertex 10.749999999999998 19.0 0.0
  endloop
endfacet
facet normal 0.0 0.0 -1.0
  outer loop
    vertex 10.749999999999998 19.0 7.0
    vertex 8.25 17.0 7.0
    vertex 8.25 19.0 7.0
  endloop
endfacet
facet normal 0.0 0.0 -1.0
  outer loop
    vertex 8.25 17.0 7.0
    vertex 10.749999999999998 19.0 7.0
    vertex 10.749999999999998 17.0 7.0
  endloop
endfacet
facet normal 0.0 1.0 0.0
  outer loop
    vertex 8.25 17.0 7.0
    vertex 10.749999999999998 17.0 0.0
    vertex 8.25 17.0 0.0
  endloop
endfacet
facet normal 0.0 1.0 0.0
  outer loop
    vertex 10.749999999999998 17.0 0.0
    vertex 8.25 17.0 7.0
    vertex 10.749999999999998 17.0 7.0
  endloop
endfacet
facet normal 0.0 1.0 0.0
  outer loop
    vertex 0.0 19.0 15.0
    vertex 8.25 19.0 0.0
    vertex 0.0 19.0 0.0
  endloop
endfacet
facet normal 0.0 1.0 0.0
  outer loop
    vertex 8.25 19.0 0.0
    vertex 0.0 19.0 15.0
    vertex 8.25 19.0 7.0
  endloop
endfacet
facet normal 0.0 1.0 0.0
  outer loop
    vertex 8.25 19.0 7.0
    vertex 0.0 19.0 15.0
    vertex 10.749999999999998 19.0 7.0
  endloop
endfacet
facet normal 0.0 1.0 0.0
  outer loop
    vertex 10.749999999999998 19.0 7.0
    vertex 0.0 19.0 15.0
    vertex 19.0 19.0 13.000000000000002
  endloop
endfacet
facet normal 0.0 1.0 0.0
  outer loop
    vertex 10.749999999999998 19.0 7.0
    vertex 19.0 19.0 0.0
    vertex 10.749999999999998 19.0 0.0
  endloop
endfacet
facet normal 0.0 1.0 0.0
  outer loop
    vertex 19.0 19.0 0.0
    vertex 10.749999999999998 19.0 7.0
    vertex 19.0 19.0 13.000000000000002
  endloop
endfacet
facet normal -1.0 0.0 0.0
  outer loop
    vertex 10.749999999999998 1.9999999999999998 7.0
    vertex 10.749999999999998 0.0 0.0
    vertex 10.749999999999998 0.0 7.0
  endloop
endfacet
facet normal -1.0 0.0 0.0
  outer loop
    vertex 10.749999999999998 0.0 0.0
    vertex 10.749999999999998 1.9999999999999998 7.0
    vertex 10.749999999999998 1.9999999999999998 0.0
  endloop
endfacet
facet normal 1.0 0.0 0.0
  outer loop
    vertex 8.25 1.9999999999999998 0.0
    vertex 8.25 0.0 7.0
    vertex 8.25 0.0 0.0
  endloop
endfacet
facet normal 1.0 0.0 0.0
  outer loop
    vertex 8.25 0.0 7.0
    vertex 8.25 1.9999999999999998 0.0
    vertex 8.25 1.9999999999999998 7.0
  endloop
endfacet
facet normal -0.0 -0.0 -1.0
  outer loop
    vertex 10.749999999999998 1.9999999999999998 7.0
    vertex 8.25 0.0 7.0
    vertex 8.25 1.9999999999999998 7.0
  endloop
endfacet
facet normal -0.0 -0.0 -1.0
  outer loop
    vertex 8.25 0.0 7.0
    vertex 10.749999999999998 1.9999999999999998 7.0
    vertex 10.749999999999998 0.0 7.0
  endloop
endfacet
facet normal 0.0 -1.0 0.0
  outer loop
    vertex 10.749999999999998 1.9999999999999998 7.0
    vertex 8.25 1.9999999999999998 0.0
    vertex 10.749999999999998 1.9999999999999998 0.0
  endloop
endfacet
facet normal 0.0 -1.0 0.0
  outer loop
    vertex 8.25 1.9999999999999998 0.0
    vertex 10.749999999999998 1.9999999999999998 7.0
    vertex 8.25 1.9999999999999998 7.0
  endloop
endfacet
facet normal 0.0 -1.0 0.0
  outer loop
    vertex 19.0 0.0 13.000000000000002
    vertex 10.749999999999998 0.0 0.0
    vertex 19.0 0.0 0.0
  endloop
endfacet
facet normal 0.0 -1.0 0.0
  outer loop
    vertex 10.749999999999998 0.0 0.0
    vertex 19.0 0.0 13.000000000000002
    vertex 10.749999999999998 0.0 7.0
  endloop
endfacet
facet normal 0.0 -1.0 0.0
  outer loop
    vertex 10.749999999999998 0.0 7.0
    vertex 19.0 0.0 13.000000000000002
    vertex 8.25 0.0 7.0
  endloop
endfacet
facet normal 0.0 -1.0 0.0
  outer loop
    vertex 8.25 0.0 7.0
    vertex 0.0 0.0 0.0
    vertex 8.25 0.0 0.0
  endloop
endfacet
facet normal 0.0 -1.0 0.0
  outer loop
    vertex 0.0 0.0 0.0
    vertex 8.25 0.0 7.0
    vertex 0.0 0.0 15.0
  endloop
endfacet
facet normal 0.0 -1.0 0.0
  outer loop
    vertex 0.0 0.0 15.0
    vertex 8.25 0.0 7.0
    vertex 19.0 0.0 13.000000000000002
  endloop
endfacet
facet normal -0.49725272646070295 0.8660254037844389 0.05234239225902142
  outer loop
    vertex 12.902399691848768 2.571796769724493 8.614228144399393
    vertex 15.073574200255159 3.8431457505076208 13.413307978920512
    vertex 14.550150277664947 3.8431457505076216 8.440780714313478
  endloop
endfacet
facet normal -0.7032215496877249 0.7071067811865477 0.07402332101976057
  outer loop
    vertex 15.073574200255159 3.8431457505076208 13.413307978920512
    vertex 12.902399691848768 2.571796769724493 8.614228144399393
    vertex 13.425823614438983 2.571796769724493 13.586755409006425
  endloop
endfacet
facet normal -0.2573969516743685 0.9659258262890684 0.027094415965723043
  outer loop
    vertex 10.983553493558091 1.7725933896874555 8.816211954745778
    vertex 13.425823614438983 2.571796769724493 13.586755409006425
    vertex 12.902399691848768 2.571796769724493 8.614228144399393
  endloop
endfacet
facet normal -0.4972527264607029 0.8660254037844387 0.0523423922590214
  outer loop
    vertex 13.425823614438983 2.571796769724493 13.586755409006425
    vertex 10.983553493558091 1.7725933896874555 8.816211954745778
    vertex 11.506977416148304 1.7725933896874555 13.788739219352811
  endloop
endfacet
facet normal -2.1386663749552563e-16 1.0 6.794721295430762e-17
  outer loop
    vertex 8.924377880163144 1.5000000000000016 9.032967282471564
    vertex 11.506977416148304 1.7725933896874555 13.788739219352811
    vertex 10.983553493558091 1.7725933896874555 8.816211954745778
  endloop
endfacet
facet normal -0.2573969516743685 0.9659258262890684 0.027094415965723047
  outer loop
    vertex 11.506977416148304 1.7725933896874555 13.788739219352811
    vertex 8.924377880163144 1.5000000000000016 9.032967282471564
    vertex 9.447801802753357 1.5000000000000016 14.005494547078596
  endloop
endfacet
facet normal 0.25739695167436766 0.9659258262890685 -0.027094415965722877
  outer loop
    vertex 6.8652022667682 1.7725933896874542 9.249722610197347
    vertex 9.447801802753357 1.5000000000000016 14.005494547078596
    vertex 8.924377880163144 1.5000000000000016 9.032967282471564
  endloop
endfacet
facet normal -2.4059996718246654e-16 1.0 7.01749904282194e-17
  outer loop
    vertex 9.447801802753357 1.5000000000000016 14.005494547078596
    vertex 6.8652022667682 1.7725933896874542 9.249722610197347
    vertex 7.388626189358415 1.7725933896874542 14.22224987480438
  endloop
endfacet
facet normal 0.49725272646070245 0.866025403784439 -0.05234239225902129
  outer loop
    vertex 4.94635606847752 2.5717967697244903 9.451706420543736
    vertex 7.388626189358415 1.7725933896874542 14.22224987480438
    vertex 6.8652022667682 1.7725933896874542 9.249722610197347
  endloop
endfacet
facet normal 0.25739695167436777 0.9659258262890684 -0.027094415965722877
  outer loop
    vertex 7.388626189358415 1.7725933896874542 14.22224987480438
    vertex 4.94635606847752 2.5717967697244903 9.451706420543736
    vertex 5.469779991067734 2.5717967697244903 14.424233685150769
  endloop
endfacet
facet normal 0.7032215496877248 0.7071067811865479 -0.0740233210197605
  outer loop
    vertex 3.298605482661345 3.843145750507618 9.625153850629648
    vertex 5.469779991067734 2.5717967697244903 14.424233685150769
    vertex 4.94635606847752 2.5717967697244903 9.451706420543736
  endloop
endfacet
facet normal 0.4972527264607024 0.866025403784439 -0.05234239225902128
  outer loop
    vertex 5.469779991067734 2.5717967697244903 14.424233685150769
    vertex 3.298605482661345 3.843145750507618 9.625153850629648
    vertex 3.8220294052515587 3.843145750507617 14.59768111523668
  endloop
endfacet
facet normal 0.7032215496877248 0.7071067811865479 -0.0740233210197605
  outer loop
    vertex 3.298605482661345 3.843145750507618 9.625153850629648
    vertex 2.557665911296665 5.499999999999997 14.730772009337198
    vertex 3.8220294052515587 3.843145750507617 14.59768111523668
  endloop
endfacet
facet normal 0.8612669864320865 0.5000000000000003 -0.09065968278232488
  outer loop
    vertex 2.557665911296665 5.499999999999997 14.730772009337198
    vertex 3.298605482661345 3.843145750507618 9.625153850629648
    vertex 2.0342419887064507 5.499999999999997 9.758244744730165
  endloop
endfacet
facet normal 0.8612669864320867 0.5000000000000004 -0.09065968278232488
  outer loop
    vertex 2.0342419887064507 5.499999999999997 9.758244744730165
    vertex 1.762853791856612 7.429447639179829 14.814436442962466
    vertex 2.557665911296665 5.499999999999997 14.730772009337198
  endloop
endfacet
facet normal 0.9606185013620931 0.2588190451025215 -0.10111773698548349
  outer loop
    vertex 1.762853791856612 7.429447639179829 14.814436442962466
    vertex 2.0342419887064507 5.499999999999997 9.758244744730165
    vertex 1.239429869266398 7.429447639179829 9.841909178355433
  endloop
endfacet
facet normal 0.9945054529214062 4.901110442605801e-16 -0.10468478451804279
  outer loop
    vertex 0.968334256791893 9.499999999999998 9.870445558615906
    vertex 1.762853791856612 7.429447639179829 14.814436442962466
    vertex 1.239429869266398 7.429447639179829 9.841909178355433
  endloop
endfacet
facet normal 0.9606185013620931 0.2588190451025215 -0.10111773698548349
  outer loop
    vertex 1.762853791856612 7.429447639179829 14.814436442962466
    vertex 0.968334256791893 9.499999999999998 9.870445558615906
    vertex 1.491758179382107 9.499999999999998 14.842972823222938
  endloop
endfacet
facet normal 0.9606185013620933 -0.2588190451025205 -0.10111773698548354
  outer loop
    vertex 1.2394298692663952 11.570552360820162 9.841909178355433
    vertex 1.491758179382107 9.499999999999998 14.842972823222938
    vertex 0.968334256791893 9.499999999999998 9.870445558615906
  endloop
endfacet
facet normal 0.9945054529214061 4.901110442605795e-16 -0.10468478451804276
  outer loop
    vertex 1.491758179382107 9.499999999999998 14.842972823222938
    vertex 1.2394298692663952 11.570552360820162 9.841909178355433
    vertex 1.7628537918566094 11.570552360820162 14.814436442962466
  endloop
endfacet
facet normal 0.8612669864320871 -0.49999999999999967 -0.09065968278232499
  outer loop
    vertex 2.0342419887064453 13.499999999999993 9.758244744730165
    vertex 1.7628537918566094 11.570552360820162 14.814436442962466
    vertex 1.2394298692663952 11.570552360820162 9.841909178355433
  endloop
endfacet
facet normal 0.9606185013620933 -0.25881904510252063 -0.10111773698548353
  outer loop
    vertex 1.7628537918566094 11.570552360820162 14.814436442962466
    vertex 2.0342419887064453 13.499999999999993 9.758244744730165
    vertex 2.557665911296659 13.499999999999993 14.730772009337198
  endloop
endfacet
facet normal 0.7032215496877253 -0.7071067811865474 -0.07402332101976061
  outer loop
    vertex 3.2986054826613405 15.156854249492376 9.62515385062965
    vertex 2.557665911296659 13.499999999999993 14.730772009337198
    vertex 2.0342419887064453 13.499999999999993 9.758244744730165
  endloop
endfacet
facet normal 0.861266986432087 -0.4999999999999996 -0.09065968278232497
  outer loop
    vertex 2.557665911296659 13.499999999999993 14.730772009337198
    vertex 3.2986054826613405 15.156854249492376 9.62515385062965
    vertex 3.8220294052515547 15.156854249492376 14.597681115236682
  endloop
endfacet
facet normal 0.49725272646070334 -0.8660254037844385 -0.052342392259021445
  outer loop
    vertex 5.469779991067728 16.428203230275503 14.424233685150769
    vertex 3.2986054826613405 15.156854249492376 9.62515385062965
    vertex 4.946356068477514 16.428203230275503 9.451706420543736
  endloop
endfacet
facet normal 0.7032215496877253 -0.7071067811865474 -0.07402332101976061
  outer loop
    vertex 3.2986054826613405 15.156854249492376 9.62515385062965
    vertex 5.469779991067728 16.428203230275503 14.424233685150769
    vertex 3.8220294052515547 15.156854249492376 14.597681115236682
  endloop
endfacet
facet normal 0.2573969516743685 -0.9659258262890684 -0.027094415965723043
  outer loop
    vertex 7.388626189358404 17.227406610312542 14.222249874804382
    vertex 4.946356068477514 16.428203230275503 9.451706420543736
    vertex 6.86520226676819 17.227406610312542 9.249722610197349
  endloop
endfacet
facet normal 0.49725272646070334 -0.8660254037844385 -0.052342392259021445
  outer loop
    vertex 4.946356068477514 16.428203230275503 9.451706420543736
    vertex 7.388626189358404 17.227406610312542 14.222249874804382
    vertex 5.469779991067728 16.428203230275503 14.424233685150769
  endloop
endfacet
facet normal -2.584221869737602e-16 -1.0 -1.893610852824967e-17
  outer loop
    vertex 9.447801802753357 17.499999999999996 14.005494547078596
    vertex 6.86520226676819 17.227406610312542 9.249722610197349
    vertex 8.924377880163142 17.499999999999996 9.032967282471564
  endloop
endfacet
facet normal 0.2573969516743685 -0.9659258262890683 -0.027094415965723054
  outer loop
    vertex 6.86520226676819 17.227406610312542 9.249722610197349
    vertex 9.447801802753357 17.499999999999996 14.005494547078596
    vertex 7.388626189358404 17.227406610312542 14.222249874804382
  endloop
endfacet
facet normal -0.2573969516743679 -0.9659258262890684 0.02709441596572289
  outer loop
    vertex 11.506977416148302 17.227406610312542 13.788739219352815
    vertex 8.924377880163142 17.499999999999996 9.032967282471564
    vertex 10.983553493558087 17.227406610312542 8.816211954745782
  endloop
endfacet
facet normal -2.227777473911727e-16 -1.0 -2.2277774739117272e-17
  outer loop
    vertex 8.924377880163142 17.499999999999996 9.032967282471564
    vertex 11.506977416148302 17.227406610312542 13.788739219352815
    vertex 9.447801802753357 17.499999999999996 14.005494547078596
  endloop
endfacet
facet normal -0.49725272646070195 -0.8660254037844395 0.05234239225902123
  outer loop
    vertex 13.42582361443898 16.428203230275507 13.586755409006425
    vertex 10.983553493558087 17.227406610312542 8.816211954745782
    vertex 12.902399691848766 16.428203230275507 8.614228144399393
  endloop
endfacet
facet normal -0.2573969516743678 -0.9659258262890684 0.027094415965722894
  outer loop
    vertex 10.983553493558087 17.227406610312542 8.816211954745782
    vertex 13.42582361443898 16.428203230275507 13.586755409006425
    vertex 11.506977416148302 17.227406610312542 13.788739219352815
  endloop
endfacet
facet normal -0.7032215496877251 -0.7071067811865476 0.07402332101976052
  outer loop
    vertex 15.073574200255159 15.15685424949238 13.413307978920512
    vertex 12.902399691848766 16.428203230275507 8.614228144399393
    vertex 14.550150277664947 15.15685424949238 8.440780714313478
  endloop
endfacet
facet normal -0.49725272646070195 -0.8660254037844394 0.05234239225902123
  outer loop
    vertex 12.902399691848766 16.428203230275507 8.614228144399393
    vertex 15.073574200255159 15.15685424949238 13.413307978920512
    vertex 13.42582361443898 16.428203230275507 13.586755409006425
  endloop
endfacet
facet normal -0.7032215496877251 -0.7071067811865476 0.07402332101976052
  outer loop
    vertex 15.073574200255159 15.15685424949238 13.413307978920512
    vertex 15.814513771619838 13.499999999999998 8.307689820212964
    vertex 16.33793769421005 13.499999999999998 13.280217084819997
  endloop
endfacet
facet normal -0.8612669864320869 -0.5 0.0906596827823249
  outer loop
    vertex 15.814513771619838 13.499999999999998 8.307689820212964
    vertex 15.073574200255159 15.15685424949238 13.413307978920512
    vertex 14.550150277664947 15.15685424949238 8.440780714313478
  endloop
endfacet
facet normal -0.8612669864320869 -0.5000000000000001 0.09065968278232492
  outer loop
    vertex 16.33793769421005 13.499999999999998 13.280217084819997
    vertex 16.609325891059893 11.570552360820168 8.224025386587696
    vertex 17.132749813650104 11.570552360820168 13.196552651194729
  endloop
endfacet
facet normal -0.9606185013620933 -0.25881904510252135 0.10111773698548351
  outer loop
    vertex 16.609325891059893 11.570552360820168 8.224025386587696
    vertex 16.33793769421005 13.499999999999998 13.280217084819997
    vertex 15.814513771619838 13.499999999999998 8.307689820212964
  endloop
endfacet
facet normal -0.9606185013620933 -0.25881904510252135 0.10111773698548351
  outer loop
    vertex 17.132749813650104 11.570552360820168 13.196552651194729
    vertex 16.880421503534393 9.5 8.195489006327223
    vertex 17.403845426124608 9.5 13.168016270934256
  endloop
endfacet
facet normal -0.9945054529214061 9.802220885211595e-17 0.10468478451804278
  outer loop
    vertex 16.880421503534393 9.5 8.195489006327223
    vertex 17.132749813650104 11.570552360820168 13.196552651194729
    vertex 16.609325891059893 11.570552360820168 8.224025386587696
  endloop
endfacet
facet normal -0.9945054529214061 9.8022208852116e-17 0.10468478451804278
  outer loop
    vertex 17.403845426124608 9.5 13.168016270934256
    vertex 16.609325891059893 7.429447639179834 8.224025386587696
    vertex 17.132749813650104 7.429447639179834 13.196552651194729
  endloop
endfacet
facet normal -0.9606185013620933 0.2588190451025207 0.10111773698548353
  outer loop
    vertex 16.609325891059893 7.429447639179834 8.224025386587696
    vertex 17.403845426124608 9.5 13.168016270934256
    vertex 16.880421503534393 9.5 8.195489006327223
  endloop
endfacet
facet normal -0.9606185013620933 0.25881904510252063 0.10111773698548351
  outer loop
    vertex 17.132749813650104 7.429447639179834 13.196552651194729
    vertex 15.814513771619842 5.5000000000000036 8.307689820212964
    vertex 16.33793769421005 5.500000000000003 13.280217084819997
  endloop
endfacet
facet normal -0.8612669864320869 0.49999999999999983 0.09065968278232496
  outer loop
    vertex 15.814513771619842 5.5000000000000036 8.307689820212964
    vertex 17.132749813650104 7.429447639179834 13.196552651194729
    vertex 16.609325891059893 7.429447639179834 8.224025386587696
  endloop
endfacet
facet normal -0.8612669864320869 0.49999999999999983 0.09065968278232496
  outer loop
    vertex 16.33793769421005 5.500000000000003 13.280217084819997
    vertex 14.550150277664947 3.8431457505076216 8.440780714313478
    vertex 15.073574200255159 3.8431457505076208 13.413307978920512
  endloop
endfacet
facet normal -0.7032215496877251 0.7071067811865476 0.07402332101976059
  outer loop
    vertex 14.550150277664947 3.8431457505076216 8.440780714313478
    vertex 16.33793769421005 5.500000000000003 13.280217084819997
    vertex 15.814513771619842 5.5000000000000036 8.307689820212964
  endloop
endfacet
facet normal 0.10468478451804276 -4.656672603557528e-17 0.9945054529214061
  outer loop
    vertex 1.239429869266398 7.429447639179829 9.841909178355433
    vertex 1.2394298692663952 11.570552360820162 9.841909178355433
    vertex 0.968334256791893 9.499999999999998 9.870445558615906
  endloop
endfacet
facet normal 0.10468478451804276 -4.656672603557528e-17 0.9945054529214061
  outer loop
    vertex 1.2394298692663952 11.570552360820162 9.841909178355433
    vertex 1.239429869266398 7.429447639179829 9.841909178355433
    vertex 2.0342419887064453 13.499999999999993 9.758244744730165
  endloop
endfacet
facet normal 0.10468478451804276 -4.656672603557528e-17 0.9945054529214061
  outer loop
    vertex 2.0342419887064453 13.499999999999993 9.758244744730165
    vertex 1.239429869266398 7.429447639179829 9.841909178355433
    vertex 2.0342419887064507 5.499999999999997 9.758244744730165
  endloop
endfacet
facet normal 0.10468478451804276 -4.656672603557528e-17 0.9945054529214061
  outer loop
    vertex 2.0342419887064453 13.499999999999993 9.758244744730165
    vertex 2.0342419887064507 5.499999999999997 9.758244744730165
    vertex 3.2986054826613405 15.156854249492376 9.62515385062965
  endloop
endfacet
facet normal 0.10468478451804276 -4.656672603557528e-17 0.9945054529214061
  outer loop
    vertex 3.2986054826613405 15.156854249492376 9.62515385062965
    vertex 2.0342419887064507 5.499999999999997 9.758244744730165
    vertex 3.298605482661345 3.843145750507618 9.625153850629648
  endloop
endfacet
facet normal 0.10468478451804276 -4.656672603557528e-17 0.9945054529214061
  outer loop
    vertex 3.2986054826613405 15.156854249492376 9.62515385062965
    vertex 3.298605482661345 3.843145750507618 9.625153850629648
    vertex 4.946356068477514 16.428203230275503 9.451706420543736
  endloop
endfacet
facet normal 0.10468478451804276 -4.656672603557528e-17 0.9945054529214061
  outer loop
    vertex 4.946356068477514 16.428203230275503 9.451706420543736
    vertex 3.298605482661345 3.843145750507618 9.625153850629648
    vertex 4.94635606847752 2.5717967697244903 9.451706420543736
  endloop
endfacet
facet normal 0.10468478451804276 -4.656672603557528e-17 0.9945054529214061
  outer loop
    vertex 4.946356068477514 16.428203230275503 9.451706420543736
    vertex 4.94635606847752 2.5717967697244903 9.451706420543736
    vertex 6.86520226676819 17.227406610312542 9.249722610197349
  endloop
endfacet
facet normal 0.10468478451804276 -4.656672603557528e-17 0.9945054529214061
  outer loop
    vertex 6.86520226676819 17.227406610312542 9.249722610197349
    vertex 4.94635606847752 2.5717967697244903 9.451706420543736
    vertex 6.8652022667682 1.7725933896874542 9.249722610197347
  endloop
endfacet
facet normal 0.10468478451804276 -4.656672603557528e-17 0.9945054529214061
  outer loop
    vertex 6.86520226676819 17.227406610312542 9.249722610197349
    vertex 6.8652022667682 1.7725933896874542 9.249722610197347
    vertex 8.924377880163142 17.499999999999996 9.032967282471564
  endloop
endfacet
facet normal 0.10468478451804276 -4.656672603557528e-17 0.9945054529214061
  outer loop
    vertex 8.924377880163142 17.499999999999996 9.032967282471564
    vertex 6.8652022667682 1.7725933896874542 9.249722610197347
    vertex 8.924377880163144 1.5000000000000016 9.032967282471564
  endloop
endfacet
facet normal 0.10468478451804276 -4.656672603557528e-17 0.9945054529214061
  outer loop
    vertex 8.924377880163142 17.499999999999996 9.032967282471564
    vertex 8.924377880163144 1.5000000000000016 9.032967282471564
    vertex 10.983553493558087 17.227406610312542 8.816211954745782
  endloop
endfacet
facet normal 0.10468478451804276 -4.656672603557528e-17 0.9945054529214061
  outer loop
    vertex 10.983553493558087 17.227406610312542 8.816211954745782
    vertex 8.924377880163144 1.5000000000000016 9.032967282471564
    vertex 10.983553493558091 1.7725933896874555 8.816211954745778
  endloop
endfacet
facet normal 0.10468478451804276 -4.656672603557528e-17 0.9945054529214061
  outer loop
    vertex 10.983553493558087 17.227406610312542 8.816211954745782
    vertex 10.983553493558091 1.7725933896874555 8.816211954745778
    vertex 12.902399691848766 16.428203230275507 8.614228144399393
  endloop
endfacet
facet normal 0.10468478451804276 -4.656672603557528e-17 0.9945054529214061
  outer loop
    vertex 12.902399691848766 16.428203230275507 8.614228144399393
    vertex 10.983553493558091 1.7725933896874555 8.816211954745778
    vertex 12.902399691848768 2.571796769724493 8.614228144399393
  endloop
endfacet
facet normal 0.10468478451804276 -4.656672603557528e-17 0.9945054529214061
  outer loop
    vertex 12.902399691848766 16.428203230275507 8.614228144399393
    vertex 12.902399691848768 2.571796769724493 8.614228144399393
    vertex 14.550150277664947 15.15685424949238 8.440780714313478
  endloop
endfacet
facet normal 0.10468478451804276 -4.656672603557528e-17 0.9945054529214061
  outer loop
    vertex 14.550150277664947 15.15685424949238 8.440780714313478
    vertex 12.902399691848768 2.571796769724493 8.614228144399393
    vertex 14.550150277664947 3.8431457505076216 8.440780714313478
  endloop
endfacet
facet normal 0.10468478451804276 -4.656672603557528e-17 0.9945054529214061
  outer loop
    vertex 14.550150277664947 15.15685424949238 8.440780714313478
    vertex 14.550150277664947 3.8431457505076216 8.440780714313478
    vertex 15.814513771619842 5.5000000000000036 8.307689820212964
  endloop
endfacet
facet normal 0.10468478451804276 -4.656672603557528e-17 0.9945054529214061
  outer loop
    vertex 14.550150277664947 15.15685424949238 8.440780714313478
    vertex 15.814513771619842 5.5000000000000036 8.307689820212964
    vertex 15.814513771619838 13.499999999999998 8.307689820212964
  endloop
endfacet
facet normal 0.10468478451804276 -4.656672603557528e-17 0.9945054529214061
  outer loop
    vertex 15.814513771619838 13.499999999999998 8.307689820212964
    vertex 15.814513771619842 5.5000000000000036 8.307689820212964
    vertex 16.609325891059893 11.570552360820168 8.224025386587696
  endloop
endfacet
facet normal 0.10468478451804276 -4.656672603557528e-17 0.9945054529214061
  outer loop
    vertex 16.609325891059893 11.570552360820168 8.224025386587696
    vertex 15.814513771619842 5.5000000000000036 8.307689820212964
    vertex 16.609325891059893 7.429447639179834 8.224025386587696
  endloop
endfacet
facet normal 0.10468478451804276 -4.656672603557528e-17 0.9945054529214061
  outer loop
    vertex 16.609325891059893 11.570552360820168 8.224025386587696
    vertex 16.609325891059893 7.429447639179834 8.224025386587696
    vertex 16.880421503534393 9.5 8.195489006327223
  endloop
endfacet
facet normal 0.0 0.0 -1.0
  outer loop
    vertex 19.0 19.0 0.0
    vertex 10.749999999999998 17.0 0.0
    vertex 10.749999999999998 19.0 0.0
  endloop
endfacet
facet normal 0.0 0.0 -1.0
  outer loop
    vertex 10.749999999999998 17.0 0.0
    vertex 19.0 19.0 0.0
    vertex 10.749999999999998 1.9999999999999998 0.0
  endloop
endfacet
facet normal 0.0 0.0 -1.0
  outer loop
    vertex 10.749999999999998 1.9999999999999998 0.0
    vertex 19.0 19.0 0.0
    vertex 10.749999999999998 0.0 0.0
  endloop
endfacet
facet normal 0.0 0.0 -1.0
  outer loop
    vertex 10.749999999999998 0.0 0.0
    vertex 19.0 19.0 0.0
    vertex 19.0 0.0 0.0
  endloop
endfacet
facet normal 0.0 0.0 -1.0
  outer loop
    vertex 10.749999999999998 17.0 0.0
    vertex 8.25 1.9999999999999998 0.0
    vertex 8.25 17.0 0.0
  endloop
endfacet
facet normal 0.0 0.0 -1.0
  outer loop
    vertex 8.25 1.9999999999999998 0.0
    vertex 10.749999999999998 17.0 0.0
    vertex 10.749999999999998 1.9999999999999998 0.0
  endloop
endfacet
facet normal 0.0 0.0 -1.0
  outer loop
    vertex 8.25 19.0 0.0
    vertex 0.0 0.0 0.0
    vertex 0.0 19.0 0.0
  endloop
endfacet
facet normal 0.0 0.0 -1.0
  outer loop
    vertex 0.0 0.0 0.0
    vertex 8.25 19.0 0.0
    vertex 8.25 0.0 0.0
  endloop
endfacet
facet normal 0.0 0.0 -1.0
  outer loop
    vertex 8.25 0.0 0.0
    vertex 8.25 19.0 0.0
    vertex 8.25 17.0 0.0
  endloop
endfacet
facet normal 0.0 0.0 -1.0
  outer loop
    vertex 8.25 0.0 0.0
    vertex 8.25 17.0 0.0
    vertex 8.25 1.9999999999999998 0.0
  endloop
endfacet
facet normal 0.10468478451804272 0.0 0.9945054529214061
  outer loop
    vertex 0.0 0.0 15.0
    vertex 1.762853791856612 7.429447639179829 14.814436442962466
    vertex 0.0 19.0 15.0
  endloop
endfacet
facet normal 0.10468478451804272 0.0 0.9945054529214061
  outer loop
    vertex 1.762853791856612 7.429447639179829 14.814436442962466
    vertex 0.0 0.0 15.0
    vertex 2.557665911296665 5.499999999999997 14.730772009337198
  endloop
endfacet
facet normal 0.10468478451804272 0.0 0.9945054529214061
  outer loop
    vertex 2.557665911296665 5.499999999999997 14.730772009337198
    vertex 0.0 0.0 15.0
    vertex 3.8220294052515587 3.843145750507617 14.59768111523668
  endloop
endfacet
facet normal 0.10468478451804272 0.0 0.9945054529214061
  outer loop
    vertex 3.8220294052515587 3.843145750507617 14.59768111523668
    vertex 0.0 0.0 15.0
    vertex 5.469779991067734 2.5717967697244903 14.424233685150769
  endloop
endfacet
facet normal 0.10468478451804272 0.0 0.9945054529214061
  outer loop
    vertex 5.469779991067734 2.5717967697244903 14.424233685150769
    vertex 0.0 0.0 15.0
    vertex 7.388626189358415 1.7725933896874542 14.22224987480438
  endloop
endfacet
facet normal 0.10468478451804272 0.0 0.9945054529214061
  outer loop
    vertex 7.388626189358415 1.7725933896874542 14.22224987480438
    vertex 0.0 0.0 15.0
    vertex 19.0 0.0 13.000000000000002
  endloop
endfacet
facet normal 0.10468478451804272 0.0 0.9945054529214061
  outer loop
    vertex 0.0 19.0 15.0
    vertex 1.762853791856612 7.429447639179829 14.814436442962466
    vertex 1.491758179382107 9.499999999999998 14.842972823222938
  endloop
endfacet
facet normal 0.10468478451804272 0.0 0.9945054529214061
  outer loop
    vertex 7.388626189358415 1.7725933896874542 14.22224987480438
    vertex 19.0 0.0 13.000000000000002
    vertex 9.447801802753357 1.5000000000000016 14.005494547078596
  endloop
endfacet
facet normal 0.10468478451804272 0.0 0.9945054529214061
  outer loop
    vertex 9.447801802753357 1.5000000000000016 14.005494547078596
    vertex 19.0 0.0 13.000000000000002
    vertex 11.506977416148304 1.7725933896874555 13.788739219352811
  endloop
endfacet
facet normal 0.10468478451804272 0.0 0.9945054529214061
  outer loop
    vertex 11.506977416148304 1.7725933896874555 13.788739219352811
    vertex 19.0 0.0 13.000000000000002
    vertex 13.425823614438983 2.571796769724493 13.586755409006425
  endloop
endfacet
facet normal 0.10468478451804272 0.0 0.9945054529214061
  outer loop
    vertex 13.425823614438983 2.571796769724493 13.586755409006425
    vertex 19.0 0.0 13.000000000000002
    vertex 15.073574200255159 3.8431457505076208 13.413307978920512
  endloop
endfacet
facet normal 0.10468478451804272 0.0 0.9945054529214061
  outer loop
    vertex 15.073574200255159 3.8431457505076208 13.413307978920512
    vertex 19.0 0.0 13.000000000000002
    vertex 16.33793769421005 5.500000000000003 13.280217084819997
  endloop
endfacet
facet normal 0.10468478451804272 0.0 0.9945054529214061
  outer loop
    vertex 16.33793769421005 5.500000000000003 13.280217084819997
    vertex 19.0 0.0 13.000000000000002
    vertex 17.132749813650104 7.429447639179834 13.196552651194729
  endloop
endfacet
facet normal 0.10468478451804272 0.0 0.9945054529214061
  outer loop
    vertex 17.132749813650104 7.429447639179834 13.196552651194729
    vertex 19.0 0.0 13.000000000000002
    vertex 17.403845426124608 9.5 13.168016270934256
  endloop
endfacet
facet normal 0.10468478451804272 0.0 0.9945054529214061
  outer loop
    vertex 0.0 19.0 15.0
    vertex 7.388626189358404 17.227406610312542 14.222249874804382
    vertex 19.0 19.0 13.000000000000002
  endloop
endfacet
facet normal 0.10468478451804272 0.0 0.9945054529214061
  outer loop
    vertex 7.388626189358404 17.227406610312542 14.222249874804382
    vertex 0.0 19.0 15.0
    vertex 5.469779991067728 16.428203230275503 14.424233685150769
  endloop
endfacet
facet normal 0.10468478451804272 0.0 0.9945054529214061
  outer loop
    vertex 5.469779991067728 16.428203230275503 14.424233685150769
    vertex 0.0 19.0 15.0
    vertex 3.8220294052515547 15.156854249492376 14.597681115236682
  endloop
endfacet
facet normal 0.10468478451804272 0.0 0.9945054529214061
  outer loop
    vertex 3.8220294052515547 15.156854249492376 14.597681115236682
    vertex 0.0 19.0 15.0
    vertex 2.557665911296659 13.499999999999993 14.730772009337198
  endloop
endfacet
facet normal 0.10468478451804272 0.0 0.9945054529214061
  outer loop
    vertex 2.557665911296659 13.499999999999993 14.730772009337198
    vertex 0.0 19.0 15.0
    vertex 1.7628537918566094 11.570552360820162 14.814436442962466
  endloop
endfacet
facet normal 0.10468478451804272 0.0 0.9945054529214061
  outer loop
    vertex 1.7628537918566094 11.570552360820162 14.814436442962466
    vertex 0.0 19.0 15.0
    vertex 1.491758179382107 9.499999999999998 14.842972823222938
  endloop
endfacet
facet normal 0.10468478451804272 0.0 0.9945054529214061
  outer loop
    vertex 19.0 19.0 13.000000000000002
    vertex 7.388626189358404 17.227406610312542 14.222249874804382
    vertex 9.447801802753357 17.499999999999996 14.005494547078596
  endloop
endfacet
facet normal 0.10468478451804272 0.0 0.9945054529214061
  outer loop
    vertex 19.0 19.0 13.000000000000002
    vertex 9.447801802753357 17.499999999999996 14.005494547078596
    vertex 11.506977416148302 17.227406610312542 13.788739219352815
  endloop
endfacet
facet normal 0.10468478451804272 0.0 0.9945054529214061
  outer loop
    vertex 19.0 19.0 13.000000000000002
    vertex 11.506977416148302 17.227406610312542 13.788739219352815
    vertex 13.42582361443898 16.428203230275507 13.586755409006425
  endloop
endfacet
facet normal 0.10468478451804272 0.0 0.9945054529214061
  outer loop
    vertex 19.0 19.0 13.000000000000002
    vertex 13.42582361443898 16.428203230275507 13.586755409006425
    vertex 15.073574200255159 15.15685424949238 13.413307978920512
  endloop
endfacet
facet normal 0.10468478451804272 0.0 0.9945054529214061
  outer loop
    vertex 19.0 19.0 13.000000000000002
    vertex 15.073574200255159 15.15685424949238 13.413307978920512
    vertex 16.33793769421005 13.499999999999998 13.280217084819997
  endloop
endfacet
facet normal 0.10468478451804272 0.0 0.9945054529214061
  outer loop
    vertex 19.0 19.0 13.000000000000002
    vertex 16.33793769421005 13.499999999999998 13.280217084819997
    vertex 17.132749813650104 11.570552360820168 13.196552651194729
  endloop
endfacet
facet normal 0.10468478451804272 0.0 0.9945054529214061
  outer loop
    vertex 19.0 19.0 13.000000000000002
    vertex 17.132749813650104 11.570552360820168 13.196552651194729
    vertex 17.403845426124608 9.5 13.168016270934256
  endloop
endfacet
facet normal 0.10468478451804272 0.0 0.9945054529214061
  outer loop
    vertex 19.0 19.0 13.000000000000002
    vertex 17.403845426124608 9.5 13.168016270934256
    vertex 19.0 0.0 13.000000000000002
  endloop
endfacet
facet normal 1.0 0.0 0.0
  outer loop
    vertex 19.0 19.0 0.0
    vertex 19.0 0.0 13.000000000000002
    vertex 19.0 0.0 0.0
  endloop
endfacet
facet normal 1.0 0.0 0.0
  outer loop
    vertex 19.0 0.0 13.000000000000002
    vertex 19.0 19.0 0.0
    vertex 19.0 19.0 13.000000000000002
  endloop
endfacet
facet normal -1.0 0.0 0.0
  outer loop
    vertex 0.0 19.0 15.0
    vertex 0.0 0.0 0.0
    vertex 0.0 0.0 15.0
  endloop
endfacet
facet normal -1.0 0.0 0.0
  outer loop
    vertex 0.0 0.0 0.0
    vertex 0.0 19.0 15.0
    vertex 0.0 19.0 0.0
  endloop
endfacet
endsolid toilet_fix
